<svg width="274" height="120" viewBox="0 0 274 120" fill="none" xmlns="http://www.w3.org/2000/svg">
<path d="M88.0799 42.315H85.4399L102.195 0.975C102.435 0.39 103.005 0 103.635 0H105.24C105.855 0 106.425 0.375 106.665 0.93L118.395 28.005H102.54V26.145C102.54 25.29 103.23 24.6 104.1 24.6H113.205L104.49 4.455L89.5349 41.34C89.2949 41.925 88.7249 42.3 88.0949 42.3L88.0799 42.315Z" fill="#191919"/>
<path d="M167.505 14.28C167.655 8.16005 162.69 3.12004 156.585 3.12004H148.14C147.285 3.12004 146.58 2.43004 146.58 1.57504V0.0450439H156.57C164.22 0.0450439 170.46 6.19504 170.595 13.785C170.73 21.615 164.175 28.02 156.315 28.02H154.065L168.435 42.315H164.685C164.28 42.315 163.875 42.15 163.59 41.865L149.22 27.57C148.245 26.595 148.935 24.93 150.315 24.93H156.345C162.315 24.93 167.34 20.25 167.475 14.295L167.505 14.28Z" fill="#191919"/>
<path d="M200.535 0H225V1.83C225 2.685 224.31 3.375 223.44 3.375H198.975V1.56C198.975 0.705 199.665 0.015 200.535 0.015V0ZM210.3 42.315V12.57C210.3 11.715 210.99 11.025 211.86 11.025H213.705V40.77C213.705 41.625 213.015 42.315 212.145 42.315H210.3Z" fill="#191919"/>
<path d="M0 117.675V97.335C0 96.48 0.69 95.79 1.56 95.79H25.515V97.65C25.515 98.505 24.825 99.195 23.955 99.195H3.42V119.22H1.56C0.705 119.22 0 118.53 0 117.675V117.675ZM0.075 78.465C0.075 77.61 0.765 76.92 1.62 76.92H25.5V78.78C25.5 79.635 24.81 80.325 23.94 80.325H0.075V78.465Z" fill="#191919"/>
<path d="M75.0447 91.2C75.1947 85.08 70.2297 80.04 64.1247 80.04H55.6797C54.8247 80.04 54.1198 79.35 54.1198 78.495V76.95H64.1098C71.7598 76.95 77.9997 83.1 78.1347 90.69C78.2697 98.52 71.7147 104.925 63.8547 104.925H61.6047L75.9748 119.22H72.2248C71.8198 119.22 71.4147 119.055 71.1297 118.77L56.7597 104.475C55.7847 103.5 56.4747 101.835 57.8547 101.835H63.8847C69.8547 101.835 74.8797 97.155 75.0147 91.2H75.0447Z" fill="#191919"/>
<path d="M150.99 97.935C150.99 110.1 141.06 120 128.865 120C116.67 120 106.725 110.1 106.725 97.935C106.725 85.77 116.655 75.87 128.865 75.87C141.075 75.87 150.99 85.77 150.99 97.935V97.935ZM147.585 97.935C147.585 87.63 139.185 79.26 128.85 79.26C118.515 79.26 110.115 87.645 110.115 97.935C110.115 108.225 118.515 116.61 128.85 116.61C139.185 116.61 147.585 108.225 147.585 97.935Z" fill="#191919"/>
<path d="M196.35 106.605C195.75 107.595 194.295 107.595 193.695 106.605L175.785 76.92H179.04C179.58 76.92 180.09 77.205 180.375 77.67L195.045 101.97L209.85 77.67C210.135 77.205 210.63 76.92 211.17 76.92H211.65C212.385 76.92 213.015 77.43 213.165 78.15L221.775 119.235H219.42C218.685 119.235 218.055 118.725 217.905 118.005L210.615 83.22L196.365 106.62L196.35 106.605Z" fill="#191919"/>
<path d="M266.376 2.175C266.376 2.175 266.483 2.175 266.514 2.175C266.529 2.175 266.56 2.175 266.606 2.235C267.004 2.64 267.54 2.88 268.091 2.955C268.183 2.955 268.26 2.97 268.367 2.97C268.474 2.97 268.826 3.015 269.102 3.135C269.224 3.18 269.286 3.24 269.286 3.24C269.286 3.24 269.286 3.27 269.301 3.345C269.301 3.42 269.301 3.495 269.301 3.585C269.194 4.275 268.796 7.35 269.087 10.635V10.845C269.286 12.66 269.653 14.22 270.22 15.525L270.526 17.28L270.802 18.915C270.863 19.29 271.016 19.65 271.246 19.965C271.307 20.055 271.384 20.22 271.384 20.34L271.368 20.43C271.322 20.49 271.154 20.745 270.541 21.045C269.653 21.495 269.117 22.425 269.194 23.43C269.194 23.43 269.24 23.985 269.316 24.825C269.393 25.605 269.485 26.67 269.607 27.765C269.669 28.29 269.73 28.845 269.791 29.37C269.914 30.3 270.036 31.11 270.143 31.785C270.296 32.64 270.449 33.315 270.603 33.825C270.633 33.915 270.695 34.125 270.725 34.5C270.786 35.265 270.725 36.36 270.557 37.56C270.48 38.055 270.404 38.475 270.342 38.775L270.296 39.015L270.266 39.135C270.266 39.135 270.25 39.225 270.235 39.27C270.174 39.555 270.159 39.84 270.204 40.125C270.204 40.155 270.204 40.2 270.22 40.26C270.296 40.815 270.679 43.755 271.016 47.475C271.276 50.325 271.43 52.95 271.506 55.275C271.598 58.185 271.537 60.6 271.322 62.43C271.322 62.475 271.322 62.565 271.322 62.61C271.322 62.685 271.322 62.76 271.322 62.835V62.955C271.338 63.3 271.475 66.375 271.261 69.33C271.154 70.83 270.97 72.075 270.74 72.93C270.664 73.23 270.587 73.425 270.526 73.56C269.944 73.89 269.5 74.46 269.332 75.15L266.422 87.99C266.315 88.455 266.361 88.935 266.529 89.385C266.529 89.385 266.836 90.195 266.928 91.215C267.004 92.07 266.928 92.82 266.683 93.39C266.361 94.155 266.438 95.01 266.882 95.67C266.882 95.67 267.433 96.555 267.54 97.725C267.632 98.835 267.341 99.84 266.637 100.785C266.376 101.13 266.208 101.52 266.162 101.94C266.162 101.97 266.162 101.985 266.162 102.015C266.147 102.195 266.039 103.14 265.948 104.22C265.886 104.835 265.84 105.48 265.81 106.065C265.779 106.725 265.779 107.205 265.81 107.595C265.58 107.925 265.442 108.315 265.412 108.72C265.412 108.765 265.412 108.765 265.412 108.81C265.381 109.065 265.151 111.3 264.631 113.55C264.355 114.72 264.049 115.68 263.727 116.415C263.528 116.865 263.375 117.12 263.268 117.255C263.207 117.33 263.176 117.375 263.161 117.405L262.686 117.645C262.594 117.63 262.502 117.6 262.41 117.555C262.349 117.525 262.303 117.51 262.257 117.48C262.196 117.015 261.997 116.58 261.691 116.22C261.629 116.115 261.185 115.38 261.017 113.64C261.002 113.4 260.91 113.085 260.818 112.86L255.03 100.035C254.892 99.72 254.677 99.435 254.417 99.195C254.31 99.09 253.789 98.595 253.238 97.83C252.717 97.11 252.044 96 251.829 94.785C251.676 93.96 251.11 93.24 250.313 92.925C250.283 92.925 250.237 92.88 250.16 92.835C250.053 92.775 249.839 92.64 249.609 92.4C248.981 91.77 248.568 90.885 248.43 89.775C248.277 88.62 247.817 87.18 247.006 85.23C245.199 80.925 242.213 75.72 241.631 74.745L238.461 67.755L237.405 65.43C237.405 65.43 237.313 65.265 237.282 65.19C237.282 65.16 237.251 65.145 237.236 65.115C237.236 65.085 237.206 65.04 237.206 64.965C237.206 64.83 237.221 64.68 237.297 64.5C237.451 64.14 237.757 63.735 238.201 63.33C238.875 62.715 239.579 61.905 240.375 60.885C240.544 60.675 240.697 60.465 240.85 60.255C242.81 57.585 244.648 54.375 245.413 52.995L245.689 52.785C246.072 52.47 246.363 52.065 246.5 51.615L249.655 41.82C249.839 41.355 249.9 40.815 249.839 40.185C249.808 39.87 249.747 39.525 249.67 39.165C249.67 39.06 249.67 38.76 249.731 38.115C249.808 37.2 249.976 36.12 250.084 35.34C250.145 34.98 250.191 34.65 250.237 34.41L250.267 34.245L250.313 34.005V33.885C250.313 33.885 250.344 33.795 250.359 33.765C250.359 33.72 250.359 33.69 250.359 33.645L251.018 24.465C251.018 24.465 251.018 24.39 251.018 24.36L251.278 19.035C251.309 18.87 251.385 18.435 251.554 18.045C251.645 17.85 251.722 17.76 251.753 17.7C253.054 17.55 254.019 16.455 253.988 15.18V15.045C253.988 14.805 253.973 13.92 254.034 13.035C254.065 12.585 254.111 12.225 254.157 11.925C254.187 11.775 254.218 11.67 254.233 11.625C254.57 11.01 254.616 10.29 254.386 9.63C254.386 9.6 254.371 9.54 254.356 9.48C254.448 9.435 254.662 9.345 255.06 9.285L259.21 8.745C259.455 8.79 259.792 8.865 260.098 8.94C260.159 8.955 260.236 8.97 260.297 8.985C260.512 9.15 260.757 9.285 261.047 9.375C261.308 9.465 261.583 9.51 261.859 9.51C261.936 9.51 262.012 9.51 262.089 9.51C262.441 9.48 262.762 9.39 263.038 9.24C263.314 9.105 263.543 8.925 263.773 8.7C263.957 8.505 264.095 8.325 264.202 8.16C264.37 7.905 264.523 7.62 264.569 7.5C264.569 7.5 264.569 7.485 264.585 7.47C264.784 7.065 264.86 6.63 264.83 6.195C264.83 6.165 264.83 6.15 264.83 6.12C264.814 5.865 264.738 4.65 264.922 3.54C265.029 2.94 265.167 2.625 265.228 2.475C265.549 2.475 265.856 2.415 266.147 2.295C266.177 2.295 266.269 2.265 266.376 2.25H266.453M266.453 0C266.361 0 266.269 0 266.177 0C265.672 0.045 265.304 0.195 265.289 0.195C265.258 0.195 265.228 0.21 265.197 0.21C265.167 0.21 265.121 0.21 265.09 0.21C265.013 0.21 264.952 0.21 264.876 0.21C264.539 0.24 264.248 0.345 264.003 0.51C263.758 0.675 263.543 0.9 263.36 1.155C263.008 1.695 262.778 2.415 262.655 3.15C262.395 4.62 262.517 6.135 262.533 6.36C262.533 6.375 262.533 6.39 262.533 6.39C262.533 6.435 262.533 6.465 262.518 6.51C262.518 6.51 262.395 6.75 262.272 6.96C262.227 7.035 262.181 7.095 262.119 7.155C262.089 7.185 262.058 7.215 261.997 7.245C261.966 7.26 261.936 7.275 261.89 7.275C261.89 7.275 261.874 7.275 261.859 7.275C261.828 7.275 261.798 7.275 261.767 7.275C261.737 7.275 261.691 7.245 261.675 7.215C261.629 7.185 261.614 7.14 261.599 7.095C261.599 7.095 261.599 7.095 261.568 7.08C261.522 7.05 261.461 7.02 261.369 6.99C261.185 6.93 260.94 6.855 260.68 6.78C260.159 6.645 259.577 6.54 259.348 6.495C259.317 6.495 259.302 6.495 259.287 6.495L254.754 7.08C253.789 7.23 253.177 7.515 252.779 7.86C252.38 8.205 252.197 8.595 252.12 8.985C252.074 9.24 252.059 9.495 252.09 9.72C252.12 10.125 252.243 10.425 252.243 10.425C252.273 10.485 252.258 10.56 252.243 10.62C252.12 10.815 252.013 11.16 251.936 11.58C251.86 11.985 251.814 12.465 251.783 12.93C251.722 13.875 251.722 14.79 251.737 15.135C251.737 15.24 251.737 15.3 251.737 15.3C251.737 15.42 251.645 15.51 251.538 15.525C251.018 15.57 250.604 15.78 250.267 16.08C249.93 16.38 249.685 16.77 249.502 17.175C249.134 17.97 249.042 18.795 249.027 18.885L248.767 24.285L248.108 33.525V33.555C248.108 33.555 248.108 33.6 248.093 33.66C248.093 33.735 248.062 33.84 248.047 33.975C248.001 34.245 247.94 34.62 247.879 35.055C247.741 35.925 247.588 37.02 247.511 37.95C247.45 38.565 247.434 39.105 247.465 39.435C247.465 39.51 247.48 39.57 247.496 39.63C247.572 39.96 247.618 40.215 247.634 40.425C247.664 40.83 247.618 41.025 247.572 41.1L244.387 50.985C244.387 50.985 244.357 51.06 244.311 51.09L243.698 51.585C243.468 52.02 241.325 55.92 239.074 58.995C238.921 59.19 238.783 59.4 238.63 59.595C237.986 60.435 237.328 61.2 236.716 61.755C235.95 62.46 235.506 63.12 235.261 63.72C235.016 64.305 234.97 64.815 235.016 65.235C235.077 65.925 235.368 66.36 235.383 66.375V66.405L236.455 68.73L239.656 75.825C239.824 76.095 243.07 81.66 244.954 86.145C245.597 87.675 246.087 89.085 246.225 90.12C246.485 92.055 247.297 93.27 248.047 94.02C248.414 94.395 248.782 94.65 249.042 94.815C249.318 94.98 249.486 95.055 249.502 95.055C249.578 95.085 249.624 95.145 249.639 95.22C249.915 96.78 250.696 98.175 251.446 99.195C252.197 100.215 252.87 100.845 252.947 100.92C252.947 100.92 252.993 100.965 253.008 100.995L258.797 113.835C258.797 113.835 258.812 113.88 258.812 113.91C259.072 116.625 259.899 117.615 260.006 117.72C260.037 117.75 260.067 117.795 260.067 117.84C260.129 118.365 260.343 118.74 260.619 119.04C260.894 119.34 261.262 119.55 261.629 119.685C262.288 119.94 262.946 120 263.145 120L264.432 119.37C264.707 119.205 264.968 118.935 265.213 118.605C265.458 118.26 265.687 117.84 265.902 117.36C266.315 116.4 266.667 115.245 266.928 114.105C267.464 111.81 267.709 109.575 267.754 109.08C267.754 109.02 267.754 108.975 267.754 108.975C267.754 108.9 267.8 108.84 267.862 108.795C267.862 108.795 267.892 108.78 267.908 108.765C267.938 108.735 267.999 108.69 268.045 108.63C268.137 108.495 268.244 108.285 268.214 107.94C268.214 107.895 268.214 107.835 268.199 107.775C268.199 107.715 268.183 107.655 268.168 107.595C268.137 107.265 268.153 106.785 268.168 106.23C268.199 105.675 268.244 105.06 268.29 104.475C268.398 103.305 268.505 102.3 268.505 102.3C268.505 102.255 268.52 102.225 268.551 102.195C269.776 100.545 270.021 98.94 269.914 97.605C269.76 95.85 268.949 94.59 268.918 94.53C268.918 94.53 268.872 94.395 268.903 94.32C269.347 93.24 269.408 92.07 269.316 91.08C269.194 89.79 268.842 88.785 268.796 88.68C268.796 88.68 268.78 88.59 268.796 88.545L271.705 75.72C271.72 75.645 271.782 75.585 271.858 75.555C271.981 75.525 272.088 75.45 272.21 75.36C272.318 75.255 272.44 75.12 272.547 74.955C272.762 74.625 272.945 74.145 273.099 73.605C273.405 72.495 273.589 71.055 273.696 69.585C273.895 66.645 273.788 63.615 273.757 62.955C273.757 62.865 273.757 62.82 273.757 62.82V62.79C274.002 60.66 274.048 58.02 273.956 55.32C273.864 52.62 273.68 49.83 273.466 47.385C273.129 43.665 272.762 40.74 272.67 40.08C272.67 39.99 272.655 39.93 272.655 39.93C272.655 39.9 272.655 39.87 272.655 39.855C272.655 39.855 272.655 39.855 272.655 39.825C272.655 39.795 272.655 39.765 272.685 39.72C272.7 39.63 272.731 39.495 272.762 39.33C272.823 39 272.915 38.535 272.991 37.995C273.145 36.93 273.282 35.565 273.175 34.41C273.145 33.99 273.068 33.6 272.961 33.255C272.823 32.82 272.685 32.22 272.563 31.515C272.44 30.81 272.333 30.015 272.226 29.205C272.165 28.68 272.103 28.155 272.042 27.63C271.92 26.535 271.828 25.5 271.751 24.735C271.675 23.91 271.629 23.37 271.629 23.37C271.629 23.28 271.675 23.205 271.751 23.16C272.67 22.695 273.206 22.17 273.512 21.675C273.726 21.315 273.818 20.97 273.849 20.64C273.849 20.505 273.849 20.385 273.849 20.265C273.772 19.425 273.282 18.765 273.282 18.765C273.267 18.735 273.252 18.705 273.236 18.675L272.945 17.025L272.593 15C271.996 13.74 271.69 12.24 271.552 10.755C271.552 10.695 271.552 10.62 271.537 10.56C271.23 7.2 271.736 3.99 271.736 3.99C271.766 3.735 271.766 3.495 271.736 3.27C271.69 2.685 271.475 2.25 271.185 1.92C270.894 1.59 270.526 1.365 270.143 1.2C269.393 0.885 268.612 0.855 268.535 0.855C268.474 0.855 268.413 0.84 268.382 0.795C268.03 0.45 267.647 0.255 267.28 0.15C267.019 0.075 266.759 0.045 266.514 0.045L266.453 0Z" fill="#EBA809"/>
</svg>
